<?xml version="1.0" encoding="UTF-8" standalone="no"?>
<!-- Generator: Adobe Illustrator 15.0.2, SVG Export Plug-In . SVG Version: 6.00 Build 0)  -->

<svg
   xmlns:dc="http://purl.org/dc/elements/1.1/"
   xmlns:cc="http://creativecommons.org/ns#"
   xmlns:rdf="http://www.w3.org/1999/02/22-rdf-syntax-ns#"
   xmlns:svg="http://www.w3.org/2000/svg"
   xmlns="http://www.w3.org/2000/svg"
   xmlns:xlink="http://www.w3.org/1999/xlink"
   xmlns:sodipodi="http://sodipodi.sourceforge.net/DTD/sodipodi-0.dtd"
   xmlns:inkscape="http://www.inkscape.org/namespaces/inkscape"
   version="1.1"
   id="レイヤー_1"
   x="0px"
   y="0px"
   width="64px"
   height="64px"
   viewBox="0 0 64 64"
   enable-background="new 0 0 64 64"
   xml:space="preserve"
   inkscape:version="0.48.5 r10040"
   sodipodi:docname="dld-logo.svg"><metadata
     id="metadata42"><rdf:RDF><cc:Work
         rdf:about=""><dc:format>image/svg+xml</dc:format><dc:type
           rdf:resource="http://purl.org/dc/dcmitype/StillImage" /><dc:title></dc:title></cc:Work></rdf:RDF></metadata><defs
     id="defs40"><linearGradient
       y2="36.6875"
       x2="15.0996"
       y1="30.3677"
       x1="8.7798"
       gradientUnits="userSpaceOnUse"
       id="SVGID_1_"><stop
         id="stop22"
         style="stop-color:#9FD7FF"
         offset="0" /><stop
         id="stop24"
         style="stop-color:#68B6FF;stop-opacity:0.6093"
         offset="0.3907" /><stop
         id="stop26"
         style="stop-color:#3396FF;stop-opacity:0.2003"
         offset="0.7997" /><stop
         id="stop28"
         style="stop-color:#1F8AFF;stop-opacity:0"
         offset="1" /></linearGradient><linearGradient
       inkscape:collect="always"
       xlink:href="#SVGID_1_"
       id="linearGradient3028"
       gradientUnits="userSpaceOnUse"
       x1="8.7798"
       y1="30.3677"
       x2="15.0996"
       y2="36.6875" /></defs><sodipodi:namedview
     pagecolor="#ffffff"
     bordercolor="#666666"
     borderopacity="1"
     objecttolerance="10"
     gridtolerance="10"
     guidetolerance="10"
     inkscape:pageopacity="0"
     inkscape:pageshadow="2"
     inkscape:window-width="1920"
     inkscape:window-height="1027"
     id="namedview38"
     showgrid="false"
     inkscape:zoom="10.429825"
     inkscape:cx="18.16928"
     inkscape:cy="33.073594"
     inkscape:window-x="1920"
     inkscape:window-y="24"
     inkscape:window-maximized="1"
     inkscape:current-layer="レイヤー_1" /><path
     style="fill:#036eb7;stroke:#171c61;stroke-width:0;stroke-miterlimit:10;stroke-dasharray:none"
     inkscape:connector-curvature="0"
     id="path7"
     d="m 2.732,38.017 c 0.727,-5.427 5.315,-12.395 16.7,-12.334 11.385,0.061 17.562,4.173 19.944,8.298 2.383,4.124 3.909,12.337 3.991,13.524 0,0 9.07,1.969 9.599,-6.109 0,0 -6.314,1.705 -8.005,-3.771 0,0 3.664,-5.403 8.912,-2.469 0,0 -0.106,-3.631 6.653,-6.033 0,0 4.447,6.562 -3.469,11.107 0,0 0.496,7.406 -2.648,11.311 -2.579,3.201 -8.622,5.727 -11.736,5.727 -3.114,0 -28.215,1.309 -33.559,0 C 3.771,55.96 1.03,50.731 2.732,38.017 z"
     stroke-miterlimit="10" /><path
     style="fill:#075399"
     inkscape:connector-curvature="0"
     id="path9"
     d="m 43.309,55.622 c 0,0 9.936,-3.636 11.823,-8.001 0,0 -0.532,6.658 -11.823,8.001 z" /><path
     style="fill:#ffffff"
     inkscape:connector-curvature="0"
     id="path11"
     d="m 3.656,49.179 c 0,0 3.113,5.256 18.038,5.499 14.926,0.243 21.709,3.154 29.771,-1.778 0,0 -3.043,2.492 -8.301,3.72 0,0 -26.07,1.146 -30.808,0.484 -4.738,-0.662 -7.423,-1.698 -8.7,-7.925 z" /><path
     style="fill:none;stroke:#171c61;stroke-width:2;stroke-miterlimit:10"
     inkscape:connector-curvature="0"
     id="path7-0"
     d="m 2.7317681,38.017222 c 0.727,-5.427001 5.315,-12.395001 16.6999999,-12.334001 11.385,0.061 17.562,4.173 19.944,8.298 2.383,4.124001 3.909,12.337001 3.991,13.524001 0,0 9.07,1.969 9.599,-6.109 0,0 -6.314,1.705 -8.005,-3.771 0,0 3.664,-5.403001 8.912,-2.469 0,0 -0.106,-3.631001 6.653,-6.033001 0,0 4.447,6.562001 -3.469,11.107001 0,0 0.496,7.406 -2.648,11.311 -2.579,3.201 -8.622,5.727 -11.736,5.727 -3.114,0 -28.215,1.309 -33.5589999,0 -5.343,-1.308 -8.083999,-6.537 -6.382,-19.251 z"
     stroke-miterlimit="10" /><path
     style="fill:#036eb7;stroke:#171c61;stroke-width:2;stroke-miterlimit:10"
     inkscape:connector-curvature="0"
     id="path13"
     d="m 22.672,53.522 c 0,0 1.967,4.098 6.721,5.819 4.755,1.722 9.591,1.64 9.591,1.64 0,0 -1.147,-4.016 -1.065,-5.901 0.082,-1.885 -2.187,-5.491 -4.782,-5.901"
     stroke-miterlimit="10" /><path
     style="fill:none;stroke:#171c61;stroke-width:2;stroke-miterlimit:10"
     inkscape:connector-curvature="0"
     id="path15"
     d="m 18.275,50.981 c 5.135,0 1.970153,5.855131 -4.423847,6.740131"
     stroke-miterlimit="10"
     sodipodi:nodetypes="cc" /><path
     style="fill:#075399"
     inkscape:connector-curvature="0"
     id="path17"
     d="m 56.033,39.588 c 0,0 4.428,-2.097 4.591,-5.063 l -4.591,5.063 z" /><path
     style="fill:#075399"
     inkscape:connector-curvature="0"
     id="path19"
     d="m 36.854,54.415 c 0,0 -4.837,2.141 -6.64,1.895 -1.803,-0.246 7.459,3.688 7.459,3.688 0,0 -0.902,-1.412 -0.819,-5.583 z" /><path
     inkscape:connector-curvature="0"
     style="fill:url(#linearGradient3028)"
     id="path30"
     d="m 3.246,44.998 c 0,0 -1.475,-10.9 5.82,-15.491 7.295,-4.59 15.082,-2.459 16.885,-2.131 0,0 -8.934,6.394 -12.459,11.229 C 9.967,43.44 3.246,44.998 3.246,44.998 z" /><g
     id="g32"><polyline
       style="fill:none;stroke:#171c61;stroke-width:1.39999998;stroke-miterlimit:10"
       id="polyline34"
       points="21.976,35.326 16.532,39.118     21.563,43.104   "
       stroke-miterlimit="10" /><line
       style="fill:none;stroke:#171c61;stroke-width:1.39999998;stroke-miterlimit:10"
       id="line36"
       y2="39.118"
       x2="16.532"
       y1="39.213001"
       x1="23.24"
       stroke-miterlimit="10" /></g><g
     id="g4140"><path
       sodipodi:nodetypes="cc"
       inkscape:connector-curvature="0"
       id="path4023-0"
       d="M 19.70311,9.3490356 12.320437,10.499582"
       style="fill:none;stroke:#2ca6e0;stroke-width:1px;stroke-linecap:butt;stroke-linejoin:miter;stroke-opacity:1" /><path
       sodipodi:nodetypes="cc"
       inkscape:connector-curvature="0"
       id="path4023-5"
       d="m 19.990747,9.2531564 3.739277,5.0815806"
       style="fill:none;stroke:#2ca6e0;stroke-width:1px;stroke-linecap:butt;stroke-linejoin:miter;stroke-opacity:1" /><path
       sodipodi:nodetypes="ccccccccccc"
       stroke-miterlimit="10"
       d="M 12.616239,10.641422 5.787,9.507 13.242034,3.9799689 20.178475,8.9980933 27.306674,3.0860246 34.538736,7.9069443 27.175599,9.46791 23.08709,14.402699 20.667379,22.947105 17.504719,15.40402 z"
       id="path5"
       inkscape:connector-curvature="0"
       style="fill:none;stroke:#2ca6e0;stroke-width:1;stroke-miterlimit:10;stroke-dasharray:none" /><path
       inkscape:connector-curvature="0"
       id="path4023"
       d="M 19.846929,9.0613985 17.833473,15.389405"
       style="fill:none;stroke:#2ca6e0;stroke-width:1px;stroke-linecap:butt;stroke-linejoin:miter;stroke-opacity:1" /><path
       transform="translate(-0.76703109,-1.8216988)"
       d="m 8.8208578,11.650128 c 0,1.270859 -1.0302346,2.301094 -2.3010934,2.301094 -1.2708587,0 -2.3010933,-1.030235 -2.3010933,-2.301094 0,-1.270858 1.0302346,-2.301093 2.3010933,-2.301093 1.2708588,0 2.3010934,1.030235 2.3010934,2.301093 z"
       sodipodi:ry="2.3010933"
       sodipodi:rx="2.3010933"
       sodipodi:cy="11.650128"
       sodipodi:cx="6.5197644"
       id="path3051"
       style="fill:#c5007b;fill-opacity:1;stroke:none"
       sodipodi:type="arc" /><path
       d="m 8.8208578,11.650128 c 0,1.270859 -1.0302346,2.301094 -2.3010934,2.301094 -1.2708587,0 -2.3010933,-1.030235 -2.3010933,-2.301094 0,-1.270858 1.0302346,-2.301093 2.3010933,-2.301093 1.2708588,0 2.3010934,1.030235 2.3010934,2.301093 z"
       sodipodi:ry="2.3010933"
       sodipodi:rx="2.3010933"
       sodipodi:cy="11.650128"
       sodipodi:cx="6.5197644"
       id="path3051-9"
       style="fill:#ec7404;fill-opacity:1;stroke:none"
       sodipodi:type="arc"
       transform="translate(6.8074007,-7.6703105)" /><path
       sodipodi:nodetypes="cc"
       inkscape:connector-curvature="0"
       id="path4023-7"
       d="m 27.373422,3.3086653 -0.09588,6.8074017"
       style="fill:none;stroke:#2ca6e0;stroke-width:1px;stroke-linecap:butt;stroke-linejoin:miter;stroke-opacity:1" /><path
       d="m 8.8208578,11.650128 c 0,1.270859 -1.0302346,2.301094 -2.3010934,2.301094 -1.2708587,0 -2.3010933,-1.030235 -2.3010933,-2.301094 0,-1.270858 1.0302346,-2.301093 2.3010933,-2.301093 1.2708588,0 2.3010934,1.030235 2.3010934,2.301093 z"
       sodipodi:ry="2.3010933"
       sodipodi:rx="2.3010933"
       sodipodi:cy="11.650128"
       sodipodi:cx="6.5197644"
       id="path3051-9-3"
       style="fill:#89ba17;fill-opacity:1;stroke:none"
       sodipodi:type="arc"
       transform="translate(13.327165,-2.780488)" /><path
       d="m 8.8208578,11.650128 c 0,1.270859 -1.0302346,2.301094 -2.3010934,2.301094 -1.2708587,0 -2.3010933,-1.030235 -2.3010933,-2.301094 0,-1.270858 1.0302346,-2.301093 2.3010933,-2.301093 1.2708588,0 2.3010934,1.030235 2.3010934,2.301093 z"
       sodipodi:ry="2.3010933"
       sodipodi:rx="2.3010933"
       sodipodi:cy="11.650128"
       sodipodi:cx="6.5197644"
       id="path3051-9-5"
       style="fill:#ec7404;fill-opacity:1;stroke:none"
       sodipodi:type="arc"
       transform="translate(10.930193,3.6433978)" /><path
       transform="translate(20.805718,-8.5332207)"
       d="m 8.8208578,11.650128 c 0,1.270859 -1.0302346,2.301094 -2.3010934,2.301094 -1.2708587,0 -2.3010933,-1.030235 -2.3010933,-2.301094 0,-1.270858 1.0302346,-2.301093 2.3010933,-2.301093 1.2708588,0 2.3010934,1.030235 2.3010934,2.301093 z"
       sodipodi:ry="2.3010933"
       sodipodi:rx="2.3010933"
       sodipodi:cy="11.650128"
       sodipodi:cx="6.5197644"
       id="path3051-7"
       style="fill:#c5007b;fill-opacity:1;stroke:none"
       sodipodi:type="arc" /><path
       d="m 8.8208578,11.650128 c 0,1.270859 -1.0302346,2.301094 -2.3010934,2.301094 -1.2708587,0 -2.3010933,-1.030235 -2.3010933,-2.301094 0,-1.270858 1.0302346,-2.301093 2.3010933,-2.301093 1.2708588,0 2.3010934,1.030235 2.3010934,2.301093 z"
       sodipodi:ry="2.3010933"
       sodipodi:rx="2.3010933"
       sodipodi:cy="11.650128"
       sodipodi:cx="6.5197644"
       id="path3051-9-5-1"
       style="fill:#ec7404;fill-opacity:1;stroke:none"
       sodipodi:type="arc"
       transform="translate(28.092513,-3.5475187)" /><path
       d="m 8.8208578,11.650128 c 0,1.270859 -1.0302346,2.301094 -2.3010934,2.301094 -1.2708587,0 -2.3010933,-1.030235 -2.3010933,-2.301094 0,-1.270858 1.0302346,-2.301093 2.3010933,-2.301093 1.2708588,0 2.3010934,1.030235 2.3010934,2.301093 z"
       sodipodi:ry="2.3010933"
       sodipodi:rx="2.3010933"
       sodipodi:cy="11.650128"
       sodipodi:cx="6.5197644"
       id="path3051-9-3-9"
       style="fill:#89ba17;fill-opacity:1;stroke:none"
       sodipodi:type="arc"
       transform="translate(20.709839,-2.2052143)" /><path
       transform="translate(16.778805,2.6846088)"
       d="m 8.8208578,11.650128 c 0,1.270859 -1.0302346,2.301094 -2.3010934,2.301094 -1.2708587,0 -2.3010933,-1.030235 -2.3010933,-2.301094 0,-1.270858 1.0302346,-2.301093 2.3010933,-2.301093 1.2708588,0 2.3010934,1.030235 2.3010934,2.301093 z"
       sodipodi:ry="2.3010933"
       sodipodi:rx="2.3010933"
       sodipodi:cy="11.650128"
       sodipodi:cx="6.5197644"
       id="path3051-7-9"
       style="fill:#c5007b;fill-opacity:1;stroke:none"
       sodipodi:type="arc" /><path
       d="m 8.8208578,11.650128 c 0,1.270859 -1.0302346,2.301094 -2.3010934,2.301094 -1.2708587,0 -2.3010933,-1.030235 -2.3010933,-2.301094 0,-1.270858 1.0302346,-2.301093 2.3010933,-2.301093 1.2708588,0 2.3010934,1.030235 2.3010934,2.301093 z"
       sodipodi:ry="2.3010933"
       sodipodi:rx="2.3010933"
       sodipodi:cy="11.650128"
       sodipodi:cx="6.5197644"
       id="path3051-9-3-91"
       style="fill:#89ba17;fill-opacity:1;stroke:none"
       sodipodi:type="arc"
       transform="translate(6.1362487,-1.4381829)" /><path
       d="m 8.8208578,11.650128 c 0,1.270859 -1.0302346,2.301094 -2.3010934,2.301094 -1.2708587,0 -2.3010933,-1.030235 -2.3010933,-2.301094 0,-1.270858 1.0302346,-2.301093 2.3010933,-2.301093 1.2708588,0 2.3010934,1.030235 2.3010934,2.301093 z"
       sodipodi:ry="2.3010933"
       sodipodi:rx="2.3010933"
       sodipodi:cy="11.650128"
       sodipodi:cx="6.5197644"
       id="path3051-9-3-5"
       style="fill:#89ba17;fill-opacity:1;stroke:none"
       sodipodi:type="arc"
       transform="translate(14.381833,10.834314)" /></g></svg>