<?xml version="1.0" encoding="UTF-8" standalone="no"?>
<!-- Generator: Adobe Illustrator 15.0.2, SVG Export Plug-In . SVG Version: 6.00 Build 0)  -->

<svg
   xmlns:dc="http://purl.org/dc/elements/1.1/"
   xmlns:cc="http://creativecommons.org/ns#"
   xmlns:rdf="http://www.w3.org/1999/02/22-rdf-syntax-ns#"
   xmlns:svg="http://www.w3.org/2000/svg"
   xmlns="http://www.w3.org/2000/svg"
   xmlns:xlink="http://www.w3.org/1999/xlink"
   xmlns:sodipodi="http://sodipodi.sourceforge.net/DTD/sodipodi-0.dtd"
   xmlns:inkscape="http://www.inkscape.org/namespaces/inkscape"
   version="1.1"
   id="レイヤー_1"
   x="0px"
   y="0px"
   width="61.529938"
   height="61.529999"
   viewBox="0 0 61.529938 61.529999"
   enable-background="new 0 0 64 64"
   xml:space="preserve"
   inkscape:version="0.48.5 r10040"
   sodipodi:docname="dld-logo.svg"><metadata
     id="metadata42"><rdf:RDF><cc:Work
         rdf:about=""><dc:format>image/svg+xml</dc:format><dc:type
           rdf:resource="http://purl.org/dc/dcmitype/StillImage" /><dc:title /></cc:Work></rdf:RDF></metadata><defs
     id="defs40"><linearGradient
       y2="36.6875"
       x2="15.0996"
       y1="30.367701"
       x1="8.7798004"
       gradientUnits="userSpaceOnUse"
       id="SVGID_1_"><stop
         id="stop22"
         style="stop-color:#9FD7FF"
         offset="0" /><stop
         id="stop24"
         style="stop-color:#68B6FF;stop-opacity:0.6093"
         offset="0.3907" /><stop
         id="stop26"
         style="stop-color:#3396FF;stop-opacity:0.2003"
         offset="0.7997" /><stop
         id="stop28"
         style="stop-color:#1F8AFF;stop-opacity:0"
         offset="1" /></linearGradient><linearGradient
       inkscape:collect="always"
       xlink:href="#SVGID_1_"
       id="linearGradient3067"
       gradientUnits="userSpaceOnUse"
       x1="8.7798004"
       y1="30.367701"
       x2="15.0996"
       y2="36.6875"
       gradientTransform="matrix(-1,0,0,1,63.999644,0)" /></defs><sodipodi:namedview
     pagecolor="#ffffff"
     bordercolor="#666666"
     borderopacity="1"
     objecttolerance="10"
     gridtolerance="10"
     guidetolerance="10"
     inkscape:pageopacity="0"
     inkscape:pageshadow="2"
     inkscape:window-width="1920"
     inkscape:window-height="1027"
     id="namedview38"
     showgrid="false"
     inkscape:zoom="7.375"
     inkscape:cx="21.370174"
     inkscape:cy="22.669834"
     inkscape:window-x="0"
     inkscape:window-y="24"
     inkscape:window-maximized="1"
     inkscape:current-layer="レイヤー_1"
     fit-margin-top="0"
     fit-margin-left="0"
     fit-margin-right="0"
     fit-margin-bottom="0" /><g
     id="g3882"
     transform="translate(-1.2393964,-0.63371768)"><path
       stroke-miterlimit="10"
       d="m 61.267644,38.017 c -0.727,-5.427 -5.315,-12.395 -16.7,-12.334 -11.385,0.061 -17.562,4.173 -19.944,8.298 -2.383,4.124 -3.909,12.337 -3.991,13.524 0,0 -9.07,1.969 -9.599,-6.109 0,0 6.314,1.705 8.005,-3.771 0,0 -3.664,-5.403 -8.912,-2.469 0,0 0.106,-3.631 -6.653,-6.033 0,0 -4.447,6.562 3.469,11.107 0,0 -0.496,7.406 2.648,11.311 2.579,3.201 8.622,5.727 11.736,5.727 3.114,0 28.215,1.309 33.559,0 5.343,-1.308 8.084,-6.537 6.382,-19.251 z"
       id="path7"
       inkscape:connector-curvature="0"
       style="fill:#036eb7;stroke:#171c61;stroke-width:0;stroke-miterlimit:10;stroke-dasharray:none" /><path
       d="m 20.690644,55.622 c 0,0 -9.936,-3.636 -11.823,-8.001 0,0 0.532,6.658 11.823,8.001 z"
       id="path9"
       inkscape:connector-curvature="0"
       style="fill:#075399" /><path
       d="m 60.343644,49.179 c 0,0 -3.113,5.256 -18.038,5.499 -14.926,0.243 -21.709,3.154 -29.771,-1.778 0,0 3.043,2.492 8.301,3.72 0,0 26.07,1.146 30.808,0.484 4.738,-0.662 7.423,-1.698 8.7,-7.925 z"
       id="path11"
       inkscape:connector-curvature="0"
       style="fill:#ffffff" /><path
       stroke-miterlimit="10"
       d="m 61.267876,38.017222 c -0.727,-5.427001 -5.315,-12.395001 -16.7,-12.334001 -11.385,0.061 -17.562,4.173 -19.944,8.298 -2.383,4.124001 -3.909,12.337001 -3.991,13.524001 0,0 -9.07,1.969 -9.599,-6.109 0,0 6.314,1.705 8.005,-3.771 0,0 -3.664,-5.403001 -8.912,-2.469 0,0 0.106,-3.631001 -6.653,-6.033001 0,0 -4.447,6.562001 3.469,11.107001 0,0 -0.496,7.406 2.648,11.311 2.579,3.201 8.622,5.727 11.736,5.727 3.114,0 28.215,1.309 33.559,0 5.343,-1.308 8.083999,-6.537 6.382,-19.251 z"
       id="path7-0"
       inkscape:connector-curvature="0"
       style="fill:none;stroke:#171c61;stroke-width:2;stroke-miterlimit:10" /><path
       d="m 46.864406,39.025425 c 0,0.790984 -1.30141,1.432203 -2.90678,1.432203 -1.60537,0 -2.906779,-0.641219 -2.906779,-1.432203 0,-0.790984 1.301409,-1.432203 2.906779,-1.432203 1.60537,0 2.90678,0.641219 2.90678,1.432203 z"
       sodipodi:ry="1.4322034"
       sodipodi:rx="2.9067798"
       sodipodi:cy="39.025425"
       sodipodi:cx="43.957626"
       id="path3110"
       style="fill:#ffffff;fill-opacity:1;stroke:none"
       sodipodi:type="arc" /><path
       stroke-miterlimit="10"
       d="m 41.327644,53.522 c 0,0 -1.967,4.098 -6.721,5.819 -4.755,1.722 -9.591,1.64 -9.591,1.64 0,0 1.147,-4.016 1.065,-5.901 -0.082,-1.885 2.187,-5.491 4.782,-5.901"
       id="path13"
       inkscape:connector-curvature="0"
       style="fill:#036eb7;stroke:#171c61;stroke-width:2;stroke-miterlimit:10" /><path
       sodipodi:nodetypes="cc"
       stroke-miterlimit="10"
       d="m 45.724644,50.981 c -5.135,0 -1.970153,5.855131 4.423847,6.740131"
       id="path15"
       inkscape:connector-curvature="0"
       style="fill:none;stroke:#171c61;stroke-width:2;stroke-miterlimit:10" /><path
       d="m 7.966644,39.588 c 0,0 -4.428,-2.097 -4.591,-5.063 l 4.591,5.063 z"
       id="path17"
       inkscape:connector-curvature="0"
       style="fill:#075399" /><path
       d="m 27.145644,54.415 c 0,0 4.837,2.141 6.64,1.895 1.803,-0.246 -7.459,3.688 -7.459,3.688 0,0 0.902,-1.412 0.819,-5.583 z"
       id="path19"
       inkscape:connector-curvature="0"
       style="fill:#075399" /><path
       d="m 60.753644,44.998 c 0,0 1.475,-10.9 -5.82,-15.491 -7.295,-4.59 -15.082,-2.459 -16.885,-2.131 0,0 8.934,6.394 12.459,11.229 3.525,4.835 10.246,6.393 10.246,6.393 z"
       id="path30"
       style="fill:url(#linearGradient3067)"
       inkscape:connector-curvature="0" /><g
       transform="matrix(-1,0,0,1,64.026527,0)"
       id="g32"><path
         sodipodi:nodetypes="scscs"
         inkscape:connector-curvature="0"
         id="polyline34"
         transform="matrix(-1,0,0,1,64.026527,0)"
         d="m 43.78125,36.96875 c -1.894129,0.02329 -3.40625,2.015625 -3.40625,2.015625 0,0 1.512121,1.992338 3.40625,2.015625 2.119589,0.02606 3.53125,-2.015625 3.53125,-2.015625 0,0 -1.411661,-2.041684 -3.53125,-2.015625 z"
         style="fill:none;stroke:#171c61;stroke-width:1.39999998;stroke-miterlimit:10" /></g><g
       transform="matrix(-1,0,0,1,63.999644,0)"
       id="g4140"><path
         style="fill:none;stroke:#2ca6e0;stroke-width:1px;stroke-linecap:butt;stroke-linejoin:miter;stroke-opacity:1"
         d="m 19.990747,9.2531564 3.739277,5.0815806"
         id="path4023-5"
         inkscape:connector-curvature="0"
         sodipodi:nodetypes="cc" /><path
         style="fill:none;stroke:#2ca6e0;stroke-width:1;stroke-miterlimit:10;stroke-dasharray:none"
         inkscape:connector-curvature="0"
         id="path5"
         d="M 12.616239,10.641422 5.787,9.507 13.242034,3.9799689 20.178475,8.9980933 27.306674,3.0860246 34.538736,7.9069443 27.175599,9.46791 23.08709,14.402699 20.667379,22.947105 17.504719,15.40402 z"
         stroke-miterlimit="10"
         sodipodi:nodetypes="ccccccccccc" /><path
         style="fill:none;stroke:#2ca6e0;stroke-width:1px;stroke-linecap:butt;stroke-linejoin:miter;stroke-opacity:1"
         d="M 19.846929,9.0613985 17.833473,15.389405"
         id="path4023"
         inkscape:connector-curvature="0" /><path
         sodipodi:type="arc"
         style="fill:#c5007b;fill-opacity:1;stroke:none"
         id="path3051"
         sodipodi:cx="6.5197644"
         sodipodi:cy="11.650128"
         sodipodi:rx="2.3010933"
         sodipodi:ry="2.3010933"
         d="m 8.8208578,11.650128 c 0,1.270859 -1.0302346,2.301094 -2.3010934,2.301094 -1.2708587,0 -2.3010933,-1.030235 -2.3010933,-2.301094 0,-1.270858 1.0302346,-2.301093 2.3010933,-2.301093 1.2708588,0 2.3010934,1.030235 2.3010934,2.301093 z"
         transform="translate(-0.76703109,-1.8216988)" /><path
         transform="translate(6.8074007,-7.6703105)"
         sodipodi:type="arc"
         style="fill:#ec7404;fill-opacity:1;stroke:none"
         id="path3051-9"
         sodipodi:cx="6.5197644"
         sodipodi:cy="11.650128"
         sodipodi:rx="2.3010933"
         sodipodi:ry="2.3010933"
         d="m 8.8208578,11.650128 c 0,1.270859 -1.0302346,2.301094 -2.3010934,2.301094 -1.2708587,0 -2.3010933,-1.030235 -2.3010933,-2.301094 0,-1.270858 1.0302346,-2.301093 2.3010933,-2.301093 1.2708588,0 2.3010934,1.030235 2.3010934,2.301093 z" /><path
         style="fill:none;stroke:#2ca6e0;stroke-width:1px;stroke-linecap:butt;stroke-linejoin:miter;stroke-opacity:1"
         d="m 27.373422,3.3086653 -0.09588,6.8074017"
         id="path4023-7"
         inkscape:connector-curvature="0"
         sodipodi:nodetypes="cc" /><path
         transform="translate(13.327165,-2.780488)"
         sodipodi:type="arc"
         style="fill:#89ba17;fill-opacity:1;stroke:none"
         id="path3051-9-3"
         sodipodi:cx="6.5197644"
         sodipodi:cy="11.650128"
         sodipodi:rx="2.3010933"
         sodipodi:ry="2.3010933"
         d="m 8.8208578,11.650128 c 0,1.270859 -1.0302346,2.301094 -2.3010934,2.301094 -1.2708587,0 -2.3010933,-1.030235 -2.3010933,-2.301094 0,-1.270858 1.0302346,-2.301093 2.3010933,-2.301093 1.2708588,0 2.3010934,1.030235 2.3010934,2.301093 z" /><path
         transform="translate(10.930193,3.6433978)"
         sodipodi:type="arc"
         style="fill:#ec7404;fill-opacity:1;stroke:none"
         id="path3051-9-5"
         sodipodi:cx="6.5197644"
         sodipodi:cy="11.650128"
         sodipodi:rx="2.3010933"
         sodipodi:ry="2.3010933"
         d="m 8.8208578,11.650128 c 0,1.270859 -1.0302346,2.301094 -2.3010934,2.301094 -1.2708587,0 -2.3010933,-1.030235 -2.3010933,-2.301094 0,-1.270858 1.0302346,-2.301093 2.3010933,-2.301093 1.2708588,0 2.3010934,1.030235 2.3010934,2.301093 z" /><path
         sodipodi:type="arc"
         style="fill:#c5007b;fill-opacity:1;stroke:none"
         id="path3051-7"
         sodipodi:cx="6.5197644"
         sodipodi:cy="11.650128"
         sodipodi:rx="2.3010933"
         sodipodi:ry="2.3010933"
         d="m 8.8208578,11.650128 c 0,1.270859 -1.0302346,2.301094 -2.3010934,2.301094 -1.2708587,0 -2.3010933,-1.030235 -2.3010933,-2.301094 0,-1.270858 1.0302346,-2.301093 2.3010933,-2.301093 1.2708588,0 2.3010934,1.030235 2.3010934,2.301093 z"
         transform="translate(20.805718,-8.5332207)" /><path
         transform="translate(28.092513,-3.5475187)"
         sodipodi:type="arc"
         style="fill:#ec7404;fill-opacity:1;stroke:none"
         id="path3051-9-5-1"
         sodipodi:cx="6.5197644"
         sodipodi:cy="11.650128"
         sodipodi:rx="2.3010933"
         sodipodi:ry="2.3010933"
         d="m 8.8208578,11.650128 c 0,1.270859 -1.0302346,2.301094 -2.3010934,2.301094 -1.2708587,0 -2.3010933,-1.030235 -2.3010933,-2.301094 0,-1.270858 1.0302346,-2.301093 2.3010933,-2.301093 1.2708588,0 2.3010934,1.030235 2.3010934,2.301093 z" /><path
         transform="translate(20.709839,-2.2052143)"
         sodipodi:type="arc"
         style="fill:#89ba17;fill-opacity:1;stroke:none"
         id="path3051-9-3-9"
         sodipodi:cx="6.5197644"
         sodipodi:cy="11.650128"
         sodipodi:rx="2.3010933"
         sodipodi:ry="2.3010933"
         d="m 8.8208578,11.650128 c 0,1.270859 -1.0302346,2.301094 -2.3010934,2.301094 -1.2708587,0 -2.3010933,-1.030235 -2.3010933,-2.301094 0,-1.270858 1.0302346,-2.301093 2.3010933,-2.301093 1.2708588,0 2.3010934,1.030235 2.3010934,2.301093 z" /><path
         sodipodi:type="arc"
         style="fill:#c5007b;fill-opacity:1;stroke:none"
         id="path3051-7-9"
         sodipodi:cx="6.5197644"
         sodipodi:cy="11.650128"
         sodipodi:rx="2.3010933"
         sodipodi:ry="2.3010933"
         d="m 8.8208578,11.650128 c 0,1.270859 -1.0302346,2.301094 -2.3010934,2.301094 -1.2708587,0 -2.3010933,-1.030235 -2.3010933,-2.301094 0,-1.270858 1.0302346,-2.301093 2.3010933,-2.301093 1.2708588,0 2.3010934,1.030235 2.3010934,2.301093 z"
         transform="translate(16.778805,2.6846088)" /><path
         transform="translate(6.1362487,-1.4381829)"
         sodipodi:type="arc"
         style="fill:#89ba17;fill-opacity:1;stroke:none"
         id="path3051-9-3-91"
         sodipodi:cx="6.5197644"
         sodipodi:cy="11.650128"
         sodipodi:rx="2.3010933"
         sodipodi:ry="2.3010933"
         d="m 8.8208578,11.650128 c 0,1.270859 -1.0302346,2.301094 -2.3010934,2.301094 -1.2708587,0 -2.3010933,-1.030235 -2.3010933,-2.301094 0,-1.270858 1.0302346,-2.301093 2.3010933,-2.301093 1.2708588,0 2.3010934,1.030235 2.3010934,2.301093 z" /><path
         transform="translate(14.381833,10.834314)"
         sodipodi:type="arc"
         style="fill:#89ba17;fill-opacity:1;stroke:none"
         id="path3051-9-3-5"
         sodipodi:cx="6.5197644"
         sodipodi:cy="11.650128"
         sodipodi:rx="2.3010933"
         sodipodi:ry="2.3010933"
         d="m 8.8208578,11.650128 c 0,1.270859 -1.0302346,2.301094 -2.3010934,2.301094 -1.2708587,0 -2.3010933,-1.030235 -2.3010933,-2.301094 0,-1.270858 1.0302346,-2.301093 2.3010933,-2.301093 1.2708588,0 2.3010934,1.030235 2.3010934,2.301093 z" /></g><path
       transform="matrix(1.2273101,0,0,1.2252252,-10.137093,-9.0174575)"
       d="m 44.864407,39.177967 c 0,0.519522 -0.394596,0.940678 -0.881356,0.940678 -0.486759,0 -0.881356,-0.421156 -0.881356,-0.940678 0,-0.519522 0.394597,-0.940678 0.881356,-0.940678 0.48676,0 0.881356,0.421156 0.881356,0.940678 z"
       sodipodi:ry="0.94067794"
       sodipodi:rx="0.88135594"
       sodipodi:cy="39.177967"
       sodipodi:cx="43.983051"
       id="path3880"
       style="fill:#000000;fill-opacity:1;stroke:#2ca6e0;stroke-width:0.2446449;stroke-miterlimit:4;stroke-opacity:1;stroke-dasharray:none"
       sodipodi:type="arc" /></g></svg>